<svg width="700" height="700" viewBox="0 0 700 700" fill="none" xmlns="http://www.w3.org/2000/svg">
<rect width="700" height="700" rx="50" fill="url(#paint0_linear_19_7)"/>
<path d="M110.75 437V262.75H162.75C176.083 262.75 187 264.75 195.5 268.75C204 272.583 210.333 278.167 214.5 285.5C218.667 292.833 220.75 301.583 220.75 311.75C220.75 326.25 216.583 337.75 208.25 346.25C199.917 354.583 187.833 359.5 172 361C169.5 361.167 166.5 361.25 163 361.25C159.5 361.25 156.083 361.25 152.75 361.25H132.75V437H110.75ZM208.25 437L163 358.5L185.5 355.75L233.5 437H208.25ZM132.75 341.75H160.5C168.167 341.75 174.833 340.75 180.5 338.75C186.167 336.75 190.583 333.583 193.75 329.25C197.083 324.917 198.75 319.167 198.75 312C198.75 304.667 197.083 298.917 193.75 294.75C190.583 290.417 186.083 287.333 180.25 285.5C174.583 283.5 168 282.5 160.5 282.5H132.75V341.75ZM292.543 439C282.876 439 274.376 437.417 267.043 434.25C259.876 430.917 253.876 426.333 249.043 420.5C244.376 414.667 240.793 408 238.293 400.5C235.96 392.833 234.793 384.75 234.793 376.25C234.793 367.75 235.96 359.667 238.293 352C240.626 344.167 244.043 337.25 248.543 331.25C253.21 325.25 259.043 320.5 266.043 317C273.043 313.5 281.21 311.75 290.543 311.75C300.043 311.75 308.21 313.417 315.043 316.75C322.043 319.917 327.71 324.333 332.043 330C336.543 335.667 339.876 342 342.043 349C344.21 356 345.293 363.25 345.293 370.75C345.293 371.417 345.21 373 345.043 375.5C345.043 377.833 344.876 379.917 344.543 381.75H255.793C256.293 393.75 259.793 403.083 266.293 409.75C272.793 416.417 281.626 419.75 292.793 419.75C299.96 419.75 306.21 418.583 311.543 416.25C316.876 413.917 321.876 410.167 326.543 405L341.293 418C336.793 422.833 332.043 426.833 327.043 430C322.043 433 316.71 435.25 311.043 436.75C305.543 438.25 299.376 439 292.543 439ZM324.293 371C324.626 369.667 324.793 368.333 324.793 367C324.96 365.667 325.043 364.333 325.043 363C325.043 359 324.293 355 322.793 351C321.46 347 319.376 343.417 316.543 340.25C313.876 336.917 310.376 334.333 306.043 332.5C301.876 330.5 296.876 329.5 291.043 329.5C283.876 329.5 277.71 331.167 272.543 334.5C267.376 337.833 263.376 342.25 260.543 347.75C257.71 353.25 256.043 359.333 255.543 366H331.293L324.293 371ZM444.053 437L442.553 412.25V359.75C442.553 350.25 439.886 342.917 434.553 337.75C429.386 332.583 421.636 330 411.303 330C404.636 330 398.386 331.417 392.553 334.25C386.719 336.917 381.053 341.5 375.553 348L360.303 335C367.136 327 374.969 321.167 383.803 317.5C392.636 313.667 402.303 311.75 412.803 311.75C428.969 311.75 441.469 315.917 450.303 324.25C459.136 332.583 463.553 344.417 463.553 359.75V437H444.053ZM403.303 439C393.969 439 385.803 437.417 378.803 434.25C371.969 430.917 366.636 426.333 362.803 420.5C359.136 414.667 357.303 407.917 357.303 400.25C357.303 393.417 358.636 387.667 361.303 383C364.136 378.167 367.719 374.417 372.053 371.75C376.386 368.917 381.303 367 386.803 366C392.469 364.833 398.386 364.25 404.553 364.25H444.553V380.25H407.553C403.886 380.25 400.053 380.583 396.053 381.25C392.053 381.917 388.553 383.333 385.553 385.5C383.386 387.167 381.636 389.25 380.303 391.75C379.136 394.25 378.553 397.167 378.553 400.5C378.553 407 380.969 412.167 385.803 416C390.636 419.833 397.136 421.75 405.303 421.75C412.136 421.75 418.303 420.167 423.803 417C429.469 413.833 433.969 409.5 437.303 404C440.803 398.333 442.553 392 442.553 385L451.303 394C450.303 402.833 447.636 410.667 443.303 417.5C438.969 424.333 433.386 429.667 426.553 433.5C419.886 437.167 412.136 439 403.303 439ZM526.563 439C520.729 439 515.396 437.917 510.563 435.75C505.896 433.417 502.229 429.75 499.563 424.75C496.896 419.75 495.563 413.333 495.563 405.5V280.75L517.063 268.75V400C517.063 406.833 518.146 412.167 520.313 416C522.479 419.667 526.396 421.5 532.063 421.5C533.729 421.5 535.729 421.333 538.063 421C540.396 420.5 542.896 419.917 545.563 419.25V435.75C542.396 436.917 539.146 437.75 535.813 438.25C532.646 438.75 529.563 439 526.563 439ZM470.063 330.25V313.75H545.563V330.25H470.063ZM584.238 439C576.738 439 570.655 436.667 565.988 432C561.322 427.333 558.988 419.917 558.988 409.75V262.75H579.988V405.75C579.988 410.583 580.988 414.083 582.988 416.25C584.988 418.417 587.655 419.5 590.988 419.5C592.488 419.5 594.155 419.333 595.988 419C597.822 418.667 599.738 418.167 601.738 417.5V435.5C598.905 436.667 595.905 437.5 592.738 438C589.572 438.667 586.738 439 584.238 439Z" fill="url(#paint1_linear_19_7)"/>
<defs>
<linearGradient id="paint0_linear_19_7" x1="0" y1="0" x2="700" y2="700" gradientUnits="userSpaceOnUse">
<stop stop-color="#FFE100"/>
<stop offset="1" stop-color="#FFC900"/>
</linearGradient>
<linearGradient id="paint1_linear_19_7" x1="350" y1="-68.5" x2="349.5" y2="513" gradientUnits="userSpaceOnUse">
<stop stop-color="#FF9B00"/>
<stop offset="1"/>
</linearGradient>
</defs>
</svg>
